<svg xmlns="http://www.w3.org/2000/svg" viewBox="0 0 366 388.7"><path d="M206.7 75.9c1.2 0 2.4-.1 3.5-.2 10.2-.9 19.3-5.7 25.9-13.6 6.5-7.8 9.6-17.7 8.7-27.9-1.8-19.8-18.1-34.7-38-34.7-1.1 0-2.3.1-3.5.2-10.1.9-19.3 5.7-25.9 13.6s-9.6 17.7-8.7 27.9c1.9 19.7 18.2 34.7 38 34.7zm-23.2-57.7C188.7 12 196 8.2 204 7.4c.9-.1 1.9-.1 2.8-.1 15.8 0 28.8 11.9 30.2 27.6.7 8.1-1.7 16-6.9 22.2-5.2 6.2-12.5 10.1-20.6 10.8-.9.1-1.9.1-2.8.1-15.8 0-28.8-11.9-30.2-27.6-.7-8 1.8-15.9 7-22.2zm42.4 231.1l27.7 53c1.2 2.3 2.8 4.5 4.6 6.3 4.9 5.1 11.4 7.9 18.4 7.9.9 0 1.8 0 2.8-.1l64.3-7.6c6.8-.7 12.8-4 17.1-9.3 4.3-5.3 6.3-11.9 5.6-18.7-.7-6.8-4-12.9-9.3-17.1-5.3-4.3-11.9-6.3-18.8-5.5l-47.4 5.6-30.8-59-8.5-93.1c-.9-10-5.7-19-13.4-25.5s-17.5-9.5-27.5-8.6c-14.6 1.3-27.2 11.1-32.1 24.9L118.2 126c-10.2 3.9-15.2 15.4-11.3 25.6.6 1.5 1.4 3 2.4 4.3L30.5 132c-1.3-.4-2.6-.6-3.9-.6-6 0-11.1 3.8-12.9 9.6l-3.9 12.8c-1.7 5.5.3 11.4 5 14.8v191.8H13c-7.4 0-13.5 6-13.5 13.5v1.9c0 7.4 6 13.5 13.5 13.5h333.9c7.4 0 13.5-6 13.5-13.5v-1.9c0-7.4-6-13.5-13.5-13.5H44.6v-182l53.8 16.4c1.3.4 2.6.6 3.9.6 6 0 11.1-3.8 12.9-9.6l3.9-12.8c1-3.4.7-7-.9-10.2 4.6 1.8 9.8 1.8 14.3 0l46.6-18.1 6 65.6-47.5 46.3-.1.1c-7.1 6.9-9.4 17.4-5.8 26.6 1.2 3.1 3 5.8 5.3 8.2l57.9 59.5c4.7 4.8 10.9 7.4 17.6 7.4 6.5 0 12.6-2.5 17.2-7 9.7-9.5 9.9-25.1.5-34.8l-40.8-41.9 26.8-26.1c3.3.7 6.4.9 9.7.7zm126.7 126.5c0 3.1-2.5 5.7-5.7 5.7H13c-3.1 0-5.7-2.5-5.7-5.7v-1.9c0-3.1 2.5-5.7 5.7-5.7h5.7c2.1 0 3.9-1.7 3.9-3.9V171.8l14.2 4.3v188.2c0 1 .4 2 1.1 2.8.7.7 1.7 1.1 2.8 1.1h306.2c3.1 0 5.7 2.5 5.7 5.7v1.9zM102.4 187.6c-.6 0-1.1-.1-1.7-.2l-79.5-24.2c-.5-.4-1.1-.7-1.7-.8-2-1.4-2.9-3.9-2.2-6.3l3.9-12.8c.7-2.4 2.9-4 5.4-4 .6 0 1.1.1 1.7.2l79.6 24.2c1.4.4 2.6 1.4 3.4 2.8.7 1.3.9 2.9.4 4.3l-3.9 12.8c-.7 2.3-3 4-5.4 4zm78.8 89.9l43.5 44.7c5.2 5.4 6.3 13.5 2.6 20l-44.6-46.8c-.7-.8-1.7-1.2-2.7-1.2-1.1 0-2 .4-2.8 1.1-.8.7-1.2 1.7-1.2 2.7 0 1 .4 2 1.1 2.8l45 47.1c-2.8 1.9-6 2.8-9.3 2.8-4.6 0-8.9-1.8-12.1-5.1l-57.9-59.5c-1.6-1.6-2.8-3.5-3.6-5.6-2.5-6.3-.9-13.4 3.9-18.1l59.6-58c3.2-3.1 7.3-4.8 11.7-4.8 4.6 0 8.9 1.8 12.1 5.1 6.5 6.6 6.3 17.3-.3 23.8L181.3 272c-1.5 1.5-1.6 4-.1 5.5zM121 133.3l85.4-33.1c1.4-.5 2.8-.8 4.3-.8 4.9 0 9.4 3.1 11.2 7.7 2.4 6.2-.7 13.1-6.8 15.5l-85.4 33.1c-1.4.5-2.9.8-4.3.8-5 0-9.4-3-11.2-7.6-2.4-6.3.7-13.2 6.8-15.6zm96.9-3.5c4.9-1.9 8.8-5.6 10.9-10.5 2.1-4.8 2.3-10.2.4-15.1-2.9-7.6-10.3-12.6-18.4-12.6-2.4 0-4.8.5-7.1 1.3l-14 5.4c5-7.4 12.9-12.1 22-13 16.4-1.5 30.9 10.6 32.4 27l8.5 93.8.3 2.9c1.5 16.4-10.6 30.9-27 32.4-.6.1-1.3.1-1.9.1l7.6-7.4c9.7-9.5 9.9-25.1.5-34.8-4.7-4.8-10.9-7.4-17.6-7.4-6.5 0-12.6 2.5-17.2 7l-4.7 4.6-5.6-61.6 30.9-12.1zm95 154.9c-1 .1-2 .7-2.6 1.5-.6.8-.9 1.8-.8 2.9.3 2.1 2.2 3.6 4.4 3.4l44.5-5.8c-1.4 7.7-7.7 13.6-15.6 14.4l-64.3 7.6c-5.5.6-10.9-1.4-14.7-5.4l-.1-.1c-1.3-1.3-2.4-2.8-3.3-4.4l-26.6-50.9c12.7-3.8 22.6-14.4 25.7-27.2l25.7 49.2c.7 1.4 2.3 2.2 3.9 2.1l50-5.9c4.7-.5 9.3.9 13 3.8 2.9 2.4 5 5.5 5.9 9.1l-45.1 5.7z"/></svg>