<svg xmlns="http://www.w3.org/2000/svg" viewBox="-41 149 496 496"><path d="M207 245c26.472 0 48-21.528 48-48s-21.528-48-48-48-48 21.528-48 48 21.528 48 48 48zm0-80c17.648 0 32 14.352 32 32s-14.352 32-32 32-32-14.352-32-32 14.352-32 32-32z"/><path d="M367 261c-22.056 0-40 17.944-40 40v72h64v48h-72c-30.872 0-56 25.128-56 56v69.792c0-5.032-1.184-10.056-3.336-14.344l-52.16-112.12 13.224-46.28 6.96 6.952H275c15.44 0 28-12.56 28-28s-12.56-28-28-28h-23.72l-12.504-18.752c.072-1.064.224-2.12.224-3.184v-7.656c0-27.8-22.608-50.408-50.408-50.408-10.56 0-20.696 3.24-29.304 9.392l-28.216 20.16C118.496 283.528 111 298.112 111 313.544c0 9 2.52 17.792 7.288 25.408l16.488 26.376-8.144 40.712.16.344-7.44 66.944L63.96 528.72c-5.776 5.784-8.96 13.472-8.96 21.656 0 5.32 1.488 10.256 3.888 14.624H-1c-22.056 0-40 17.944-40 40s17.944 40 40 40h352c22.056 0 40-17.944 40-40s-17.944-40-40-40h-72v-88c0-22.056 17.944-40 40-40h72v208h64V261h-88zm-133.064 66.824L242.72 341H275c6.616 0 12 5.384 12 12s-5.384 12-12 12h-40.688l-8.552-8.552 8.176-28.624zM263 548.488V565h-4.664c2.896-4.856 4.664-10.464 4.664-16.512zm-49.992-78.4l32.24 69.304a16.507 16.507 0 0 1 1.752 7.4v1.696c0 9.104-7.408 16.512-16.52 16.512-6.344 0-12.192-3.696-14.912-9.416l-35.488-74.52 32.928-10.976zm-6.784-14.592L173.16 466.52l-29.792-62.56 3.784-18.928C152.504 392.56 161.08 397 170.416 397c7.48 0 14.248-2.952 19.344-7.672l8.72 4.36-7.992 27.984 15.736 33.824zm-41.104 31.368l-1.416 2.832-28.192-16.912 4.336-38.984 25.272 53.064zm8.456 18.88l.272-.544 27.264 57.264c.424.888.944 1.704 1.44 2.536h-88.24l59.264-59.256zm-4.992-238.328A34.273 34.273 0 0 1 188.592 261C207.56 261 223 276.44 223 295.408v7.656c0 3.2-.448 6.384-1.328 9.456l-18.712 65.52-4.968-2.48c.592-2.304 1.008-4.672 1.008-7.144v-5.712a28.554 28.554 0 0 0-4.08-14.712l-17.136-28.568 17.656-11.768-8.872-13.312-18.544 12.36-22.688-22.688 23.248-16.6zm-36.736 63.056A31.97 31.97 0 0 1 127 313.544c0-6.896 2.288-13.512 6.296-18.944l27.352 27.352 20.56 34.264a12.719 12.719 0 0 1 1.792 6.488v5.712c0 6.936-5.648 12.584-12.584 12.584-4.376 0-8.36-2.208-10.68-5.92l-27.888-44.608zM75.28 540.032l52.96-52.96 25.856 15.512-58.128 58.136A14.724 14.724 0 0 1 85.624 565C77.56 565 71 558.44 71 550.376c0-3.856 1.56-7.624 4.28-10.344zM-1 629c-13.232 0-24-10.768-24-24s10.768-24 24-24 24 10.768 24 24-10.768 24-24 24zm352-48c13.232 0 24 10.768 24 24s-10.768 24-24 24-24-10.768-24-24 10.768-24 24-24zm-56 16v-16h24.208c-5.08 6.704-8.208 14.96-8.208 24s3.128 17.296 8.208 24H295v-16h-16v16h-16v-16h-16v16h-16v-16h-16v16h-16v-16h-16v16h-16v-16h-16v16h-16v-16h-16v16h-16v-16H87v16H71v-16H55v16H30.792c5.08-6.704 8.208-14.96 8.208-24s-3.128-17.296-8.208-24H55v16h16v-16h16v16h16v-16h16v16h16v-16h16v16h16v-16h16v16h16v-16h16v16h16v-16h16v16h16v-16h16v16h16zm144 32h-32V373h32v256zm0-272h-96v-32h96v32zm0-48h-96v-8c0-13.232 10.768-24 24-24h72v32z"/></svg>