<svg xmlns="http://www.w3.org/2000/svg" viewBox="0 0 322 208.898"><g fill="#fff"><path d="M124 49.61H0v1.537l27.875 27.876-.213.213 58.5 58.5.213-.213.376.375h37.158v-33.083H95.668L74.463 83.61H124v91.537l33.751 33.751H158V49.61h-33.776zm74 0h-34v159.288h.249L198 175.147V83.61h91.537L322 51.147V49.61z"/><path d="M198.091 137.898h37.158L268 105.147v-.332h-69.909zM58.565 23.949h2.997c.985 0 1.883-.059 2.695-.177a12.327 12.327 0 0 0 2.383-.593 6.53 6.53 0 0 0 2.04-1.155c.583-.492 1.096-1.093 1.54-1.8s.781-1.574 1.01-2.602c.229-1.026.343-2.185.343-3.476 0-3.26-.756-5.744-2.269-7.451-1.513-1.707-3.795-2.56-6.847-2.56H50.948v34.507h7.617V23.949zm0-14.465h2.415c.61 0 1.13.076 1.561.229.43.153.767.351 1.01.593.242.243.43.572.562.989.132.416.215.826.25 1.228.034.402.052.902.052 1.499 0 1.679-.226 2.869-.676 3.569-.451.701-1.363 1.051-2.737 1.051h-2.435V9.484zm18.346 26.609c.798 1.006 1.873 1.762 3.226 2.269s2.986.759 4.901.759c3.732 0 6.406-.96 8.023-2.882 1.616-1.921 2.425-4.755 2.425-8.502V15c0-3.746-.809-6.573-2.425-8.481-1.617-1.908-4.291-2.862-8.023-2.862-1.915 0-3.548.25-4.901.75-1.353.499-2.428 1.249-3.226 2.248s-1.374 2.175-1.727 3.527c-.354 1.352-.531 2.958-.531 4.818v12.737c0 1.846.177 3.448.531 4.808.354 1.359.929 2.542 1.727 3.548zm5.568-23.008c0-.485.01-.888.031-1.207.021-.319.08-.676.177-1.072s.236-.708.417-.937c.18-.229.434-.423.76-.583.326-.16.718-.239 1.176-.239s.853.08 1.186.239.59.357.77.593c.18.236.323.545.427.926.104.382.17.743.198 1.083s.042.739.042 1.196V29.63c0 .472-.014.878-.042 1.218s-.094.704-.198 1.092c-.104.389-.247.705-.427.947s-.437.444-.77.604-.728.239-1.186.239-.85-.083-1.176-.25c-.326-.167-.58-.367-.76-.604-.181-.236-.319-.551-.417-.947s-.156-.756-.177-1.082-.031-.732-.031-1.218V13.085zm33.112 20.396h-7.909V4.135h-7.617v34.507h15.526zm7.701 5.161h7.305V24.531l6.493-20.396h-6.93l-2.976 10.927-3.289-10.927h-7.18l6.577 20.396zm26.722-13.382h3.122v3.871c0 3.066-.999 4.6-2.997 4.6-1.083 0-1.828-.399-2.237-1.197-.41-.798-.614-1.883-.614-3.257V13.48c0-.513.011-.947.031-1.301.021-.354.083-.746.188-1.176.104-.43.246-.773.427-1.03.18-.256.44-.475.78-.655s.752-.271 1.238-.271c.472 0 .871.08 1.197.239.326.16.576.351.75.572.173.222.305.534.395.937s.146.77.167 1.103c.021.333.031.763.031 1.291v2.768h7.451v-2.185c0-1.249-.104-2.376-.313-3.382s-.555-1.936-1.041-2.789a6.807 6.807 0 0 0-1.883-2.133c-.77-.569-1.731-1.013-2.883-1.332-1.152-.319-2.477-.479-3.975-.479-1.554 0-2.921.184-4.1.552s-2.164.884-2.955 1.55-1.433 1.506-1.925 2.518c-.493 1.013-.846 2.123-1.062 3.33s-.322 2.574-.322 4.1v11.468c0 1.859.163 3.496.489 4.912.326 1.415.85 2.664 1.571 3.746.722 1.082 1.703 1.904 2.945 2.466 1.241.562 2.737.843 4.485.843 2.691 0 4.544-1.131 5.557-3.393l.438 2.893h5.057v-17.94h-10.011v4.558zm16.494 10.833c.798 1.006 1.873 1.762 3.227 2.269 1.353.506 2.986.759 4.9.759 3.732 0 6.406-.96 8.023-2.882 1.616-1.921 2.425-4.755 2.425-8.502V15c0-3.746-.809-6.573-2.425-8.481-1.617-1.908-4.291-2.862-8.023-2.862-1.914 0-3.548.25-4.9.75-1.354.499-2.429 1.249-3.227 2.248s-1.373 2.175-1.727 3.527c-.354 1.353-.531 2.959-.531 4.818v12.737c0 1.846.177 3.448.531 4.808.354 1.359.929 2.542 1.727 3.548zm5.567-23.008c0-.485.011-.888.031-1.207.021-.319.079-.676.177-1.072s.236-.708.416-.937c.181-.229.434-.423.76-.583s.719-.239 1.176-.239c.459 0 .854.08 1.187.239s.59.357.771.593c.18.236.322.545.426.926.104.382.17.743.198 1.083s.042.739.042 1.196V29.63c0 .472-.014.878-.042 1.218s-.094.704-.198 1.092c-.104.389-.246.705-.426.947-.181.243-.438.444-.771.604s-.728.239-1.187.239c-.457 0-.85-.083-1.176-.25s-.579-.367-.76-.604c-.18-.236-.318-.551-.416-.947s-.156-.756-.177-1.082-.031-.732-.031-1.218V13.085zm24.101 7.7l7.117 17.857h5.162V4.135h-6.327v16.567l-7.097-16.567h-5.369v34.507h6.514zm24.954 2.539h6.307v-5.327h-6.307V9.318h7.326V4.135h-14.943v34.507h7.617zm10.905-19.189h7.617v34.507h-7.617zm15.922 34.507h7.638V9.775h5.245v-5.64h-18.191v5.64h5.308z"/></g></svg>