<svg xmlns="http://www.w3.org/2000/svg" viewBox="-41 149 488.664 496"><path d="M406.384 289.92l-14.768 6.16L403.672 325H351v16h59.336l20 48-20 48H288.312c-21.408-19.792-49.92-32-81.312-32s-59.904 12.208-81.312 32H-9v16h120.224C96.088 473.08 87 497.968 87 525c0 66.168 53.832 120 120 120s120-53.832 120-120c0-27.032-9.088-51.92-24.224-72h100.896l-12.048 28.92 14.768 6.16L447.664 389l-41.28-99.08zM311 525c0 57.344-46.656 104-104 104s-104-46.656-104-104 46.656-104 104-104 104 46.656 104 104z"/><path d="M23.08 401.72l140.968-76.36 17.728 17.728-32.88 4.112C136.416 348.76 127 359.424 127 372c0 13.784 11.216 25 25 25 4.936 0 9.928-.272 14.84-.824l70.568-7.84 10.24-40.976-33.76-47.264 43.328-6.192L272.968 349H319c13.232 0 24-10.768 24-24s-10.768-24-24-24h-9.448l-7.112-35.56-31.352-37.616A41.02 41.02 0 0 0 239.464 213c-1.912 0-3.816.168-5.704.432l-33.632-16.816-68.56 13.712C119.648 212.72 111 223.264 111 235.416 111 249.52 122.48 261 136.584 261h4.4l-2.264 1.232L-4.352 352.6c-7.92 5-12.648 13.584-12.648 22.952v2.296C-17 392.824-4.824 405 10.152 405c4.496 0 8.968-1.136 12.928-3.28zm207.256-51.072l-5.752 23.016-59.504 6.608c-4.328.488-8.728.728-13.08.728-4.96 0-9-4.04-9-9 0-4.52 3.392-8.36 7.88-8.92l65.336-8.168-37.496-37.496 20.104-10.888 31.512 44.12zM136.584 245c-5.288 0-9.584-4.296-9.584-9.584 0-4.544 3.24-8.504 7.704-9.4l63.168-12.632 15.856 7.928-32.288 17.616-38.328 5.952c-.496.08-.976.12-1.472.12h-5.056zM-1 377.848v-2.296c0-3.84 1.944-7.368 5.192-9.424l142.632-90.112 80.576-43.944A25.294 25.294 0 0 1 239.464 229a25.07 25.07 0 0 1 19.336 9.064l28.76 34.504L296.448 317H319c4.416 0 8 3.584 8 8s-3.584 8-8 8h-33.968l-16.256-56.904-64.32 9.184-189 102.376A11.277 11.277 0 0 1 10.152 389C4 389-1 384-1 377.848zM311 245c26.472 0 48-21.528 48-48s-21.528-48-48-48-48 21.528-48 48 21.528 48 48 48zm0-80c17.648 0 32 14.352 32 32s-14.352 32-32 32-32-14.352-32-32 14.352-32 32-32zM-41 437h16v16h-16zm0-168h16v16h-16z"/><path d="M-9 269h80v16H-9zm-16-32h16v16h-16zm32 0h88v16H7zm-16-32H7v16H-9zm32 0h80v16H23zm184 232c-48.52 0-88 39.48-88 88v8h24v-16h-7.528a71.598 71.598 0 0 1 5.592-20.832l6.512 3.76 8-13.856-6.448-3.728a72.396 72.396 0 0 1 15.216-15.216l3.728 6.448 13.856-8-3.76-6.512A71.348 71.348 0 0 1 199 453.472V461h16v-7.528a71.348 71.348 0 0 1 20.832 5.592l-3.76 6.512 13.856 8 3.728-6.448a72.396 72.396 0 0 1 15.216 15.216l-6.448 3.728 8 13.856 6.512-3.76A71.348 71.348 0 0 1 278.528 517H271v16h24v-8c0-48.52-39.48-88-88-88z"/><path d="M200.451 560.332l39.995-55.993 13.011 9.294-39.994 55.993zM199 589h16v16h-16zm32 0h16v16h-16zm-64 0h16v16h-16z"/></svg>