<svg xmlns="http://www.w3.org/2000/svg" viewBox="0 0 243.7 310.6"><path d="M119.7 109.4c-14.6 4.7-24.4 18.1-24.4 33.4 0 15.3 9.8 28.8 24.4 33.4.7.2 1.5.3 2.2.3.7 0 1.5-.1 2.2-.3 14.6-4.7 24.4-18.1 24.4-33.4 0-15.3-9.8-28.8-24.4-33.4-1.5-.4-3-.4-4.4 0zm14.3 33.4c0 8.3-4.8 15.6-12.2 18.9-7.4-3.3-12.2-10.6-12.2-18.9 0-8.3 4.8-15.6 12.2-18.9 7.4 3.4 12.2 10.7 12.2 18.9zm81.2-125.9c1.6 0 3.2-.5 4.6-1.7l3.1-2.5c3.1-2.5 3.5-7.1 1-10.1-2.5-3.1-7.1-3.5-10.1-1l-3.1 2.5c-3.1 2.5-3.5 7.1-1 10.1 1.4 1.9 3.4 2.7 5.5 2.7zm-47.3 40.9c.1 3.9 3.3 7.1 7.2 7.1h.1c4-.1 7.1-3.3 7.1-7.3-.2-13.6-11-24.3-24.4-24.3-4 0-7.2 3.2-7.2 7.2s3.2 7.2 7.2 7.2c5.6-.1 9.9 4.4 10 10.1z"/><path d="M70.6 123.9c1.4 1.4 3.3 2.1 5.1 2.1 1.8 0 3.6-.7 5.1-2.1 2.8-2.8 2.9-7.3.1-10.2C59 91.6 47.6 72.3 47.8 57.9c.4-21 16.8-37.4 37.3-37.4 12.3 0 23.8 6.1 30.8 16.2 1.3 2 3.6 3.1 5.9 3.1s4.6-1.2 5.9-3.1c7-10.1 18.5-16.2 30.8-16.2 20.6 0 36.9 16.4 37.3 37.4.3 14.3-11.2 33.6-33 55.9-2.8 2.8-2.8 7.4.1 10.2 2.8 2.8 7.4 2.8 10.2-.1 25.3-25.8 37.5-47.4 37.2-66.2-.2-13.8-5.7-26.7-15.3-36.4-9.7-9.8-22.6-15.2-36.4-15.2-13.9 0-27.1 5.6-36.7 15.3C112.2 11.7 99 6.1 85.1 6.1c-13.8 0-26.7 5.4-36.4 15.2-9.6 9.7-15 22.6-15.3 36.4-.3 18.8 11.8 40.4 37.2 66.2zM20.8 12.7l3.1 2.5c1.3 1.1 3 1.7 4.6 1.7 2.1 0 4.1-.9 5.6-2.6 2.5-3.1 2.1-7.6-1-10.1L30 1.7c-3.1-2.5-7.6-2.1-10.1 1-2.6 3-2.2 7.5.9 10zm222.8 30.4c-.7-3.9-4.4-6.6-8.3-5.9l-3.9.7c-3.9.7-6.6 4.4-5.9 8.3.6 3.5 3.6 6 7.1 6 .4 0 .8 0 1.2-.1l3.9-.7c3.9-.6 6.5-4.4 5.9-8.3z"/><path d="M218.2 116.8h-15.6c-3.7 0-6.8 2.8-7.2 6.5-3.9 37.8-35.6 66.3-73.6 66.3-38.1 0-69.7-28.5-73.6-66.3-.4-3.7-3.5-6.5-7.2-6.5H25.4c-4 0-7.2 3.2-7.2 7.2s3.2 7.2 7.2 7.2h9.4c3.4 19.1 13.1 36.6 27.6 49.8 14.5 13.2 32.8 21.1 52.2 22.6v47.7H51.8c-16.3 0-29.6 13.3-29.6 29.6s13.3 29.6 29.6 29.6h47.6c1.5 0 2.9-.4 4.1-1.3l32.7-22.4c3.3-2.2 4.1-6.7 1.9-10-2.2-3.3-6.7-4.1-10-1.9l-30.9 21.2H51.8c-8.4 0-15.2-6.8-15.2-15.2 0-8.4 6.8-15.2 15.2-15.2h140.1c8.4 0 15.2 6.8 15.2 15.2 0 8.4-6.8 15.2-15.2 15.2h-47.6c-4 0-7.2 3.2-7.2 7.2s3.2 7.2 7.2 7.2h47.6c16.3 0 29.6-13.3 29.6-29.6s-13.3-29.6-29.6-29.6H129v-47.7c19.4-1.6 37.7-9.5 52.2-22.6 14.5-13.2 24.2-30.7 27.6-49.8h9.4c4 0 7.2-3.2 7.2-7.2s-3.2-7.2-7.2-7.2zM12.3 37.9l-3.9-.7c-3.9-.7-7.6 2-8.3 5.9-.7 3.9 2 7.6 5.9 8.3l3.9.7c.4.1.8.1 1.2.1 3.4 0 6.5-2.5 7.1-6 .7-3.9-1.9-7.6-5.9-8.3z"/></svg>