<svg xmlns="http://www.w3.org/2000/svg" viewBox="-90 572.341 512.002 245.699"><path d="M414.433 658.292h-35.864v-37.747c0-11.405-9.278-20.684-20.684-20.684h-24.31c-1.924 0-3.781.285-5.549.778v-7.614c0-11.405-9.278-20.684-20.684-20.684h-40.158c-11.405 0-20.684 9.278-20.684 20.684v65.267H85.499v-65.267c0-11.405-9.278-20.684-20.684-20.684H24.657c-11.405 0-20.684 9.278-20.684 20.684v7.614a20.584 20.584 0 0 0-5.549-.778h-24.308c-11.405 0-20.684 9.278-20.684 20.684v37.747h-35.865A7.567 7.567 0 0 0-90 665.859v58.663a7.567 7.567 0 0 0 7.567 7.567h35.865v37.747c0 11.405 9.278 20.684 20.684 20.684h24.309c1.924 0 3.781-.285 5.549-.778v7.614c0 11.405 9.278 20.684 20.684 20.684h40.158c11.405 0 20.684-9.278 20.684-20.684v-65.267h161.002v65.267c0 11.405 9.278 20.684 20.684 20.684h40.158c11.405 0 20.684-9.278 20.684-20.684v-7.614c1.769.494 3.625.778 5.549.778h24.31c11.405 0 20.684-9.278 20.684-20.684v-37.747h35.864a7.567 7.567 0 0 0 7.567-7.567v-58.663a7.57 7.57 0 0 0-7.569-7.567zm-489.298 58.663v-43.529h28.297v43.529h-28.297zm73.29 58.432h-24.309a5.556 5.556 0 0 1-5.549-5.549V620.545c0-3.06 2.49-5.549 5.549-5.549h24.309a5.555 5.555 0 0 1 5.549 5.549v149.293a5.556 5.556 0 0 1-5.549 5.549zm71.939 21.97c0 3.06-2.49 5.549-5.549 5.549H24.657a5.556 5.556 0 0 1-5.549-5.549V593.026c0-3.06 2.49-5.549 5.549-5.549h40.158a5.556 5.556 0 0 1 5.549 5.549v204.331zm15.135-80.402v-43.529H246.5v43.529H85.499zm227.393 80.402c0 3.06-2.49 5.549-5.549 5.549h-40.158a5.556 5.556 0 0 1-5.549-5.549V593.026c0-3.06 2.49-5.549 5.549-5.549h40.158a5.556 5.556 0 0 1 5.549 5.549v204.331zm50.543-27.52c0 3.06-2.49 5.549-5.549 5.549h-24.31a5.556 5.556 0 0 1-5.549-5.549V620.545c0-3.06 2.49-5.549 5.549-5.549h24.31a5.556 5.556 0 0 1 5.549 5.549v149.292zm43.431-52.882H378.57v-43.529h28.296v43.529z" fill="#736efa"/></svg>