<svg xmlns="http://www.w3.org/2000/svg" viewBox="-105 247.889 384.001 346.001"><g fill="#736efa"><path d="M255.04 271.288c-31.199-31.199-81.965-31.199-113.168 0-15.113 15.117-23.437 35.211-23.437 56.586s8.324 41.469 23.437 56.582c7.758 7.758 16.828 13.723 26.711 17.695-3.473 4.832-7.02 8.352-9.695 10.325a154.716 154.716 0 0 0-30.364 29.589 81.911 81.911 0 0 0-5.082-17.734c-10.074-24.398-30.546-41.914-56.171-48.047l-9.309-2.23c-.18-.766-.363-1.535-.543-2.313-10.402-45.043-48.199-79.09-94.047-84.719a8.003 8.003 0 0 0-8.918 6.965 8.004 8.004 0 0 0 6.969 8.914c39.199 4.817 71.512 33.926 80.41 72.442 4.086 17.687 8.211 32.851 12.262 45.07a8.002 8.002 0 0 0 7.594 5.484c.832 0 1.679-.132 2.515-.41 4.195-1.39 6.469-5.918 5.078-10.109-2.304-6.945-4.64-14.922-6.984-23.832l1.25.297c20.574 4.926 37.015 18.992 45.105 38.593 7.91 19.172 6.262 40.196-4.527 57.68a82.419 82.419 0 0 1-1.012 1.594 7.997 7.997 0 0 0 6.684 12.383 7.992 7.992 0 0 0 6.699-3.614c.422-.648.836-1.296 1.246-1.957 4.387-7.113 7.563-14.691 9.52-22.503 9.281-18.84 23.492-35.665 41.121-48.665 5.75-4.238 11.625-10.968 16.359-18.625a80.607 80.607 0 0 0 13.711 1.165c5.402 0 10.723-.532 15.902-1.571-6.664 23.996-12.246 45-16.632 62.559-10.239 40.984-37.325 93.476-61.328 106.289-4.989 2.664-9.333 3.324-13.258 2.012C7.614 524.226-15.651 469.405-20.292 448.28a8 8 0 0 0-8.598-6.246c-19.363-4.89-36.074-16.855-47.144-33.781-11.469-17.543-15.512-38.567-11.383-59.199a7.999 7.999 0 0 0-6.277-9.414 8 8 0 0 0-9.414 6.273c-4.957 24.773-.098 50.023 13.683 71.094 12.946 19.797 32.344 33.941 54.871 40.082 3.821 13.242 12.481 32.008 31.883 53.613 26.805 29.852 67.004 57.164 119.492 81.184.203.093.41.179.621.254a28.648 28.648 0 0 0 9.762 1.714c5.426 0 11.024-1.523 16.727-4.57 17.66-9.426 32.707-31.738 42.218-48.793 11.715-21.012 21.594-45.699 27.098-67.734 4.969-19.899 11.5-44.278 19.41-72.492 8.207-3.883 15.77-9.196 22.383-15.809 31.199-31.199 31.199-81.965 0-113.168zm-56.582 120.606c-17.102 0-33.18-6.661-45.269-18.75-12.094-12.094-18.754-28.168-18.754-45.27 0-17.102 6.66-33.18 18.754-45.27 12.48-12.48 28.874-18.722 45.269-18.722s32.789 6.242 45.27 18.722c24.961 24.961 24.961 65.579 0 90.54-12.094 12.089-28.172 18.75-45.27 18.75z"/><path d="M183.634 313.05c-8.172 8.172-8.172 21.472 0 29.648 4.086 4.086 9.453 6.129 14.82 6.129 5.371 0 10.738-2.043 14.824-6.129 8.172-8.176 8.172-21.472 0-29.648-8.172-8.172-21.468-8.172-29.644 0zm18.332 18.332a4.97 4.97 0 0 1-7.02 0 4.974 4.974 0 0 1 0-7.02 4.96 4.96 0 0 1 3.512-1.449c1.27 0 2.539.484 3.508 1.449a4.974 4.974 0 0 1 0 7.02z"/><path d="M239.353 286.976c-22.551-22.551-59.243-22.551-81.793 0-22.551 22.55-22.551 59.242 0 81.793 11.273 11.277 26.086 16.914 40.898 16.914 14.809 0 29.621-5.637 40.895-16.914 22.55-22.551 22.55-59.243 0-81.793zm-11.313 70.48c-16.312 16.313-42.855 16.313-59.164 0-16.313-16.312-16.313-42.852 0-59.164 8.152-8.156 18.867-12.234 29.582-12.234 10.711 0 21.426 4.078 29.582 12.234 16.313 16.309 16.313 42.852 0 59.164z"/></g></svg>