<svg xmlns="http://www.w3.org/2000/svg" viewBox="-273 396.89 48 48"><g fill="#171838"><path d="M-225.816 427.101v-.008c.527-1.98.816-4.058.816-6.203 0-2.145-.289-4.223-.816-6.203-.004-.004 0-.008 0-.008-.004-.004-.004-.008-.008-.012a23.735 23.735 0 0 0-2.375-5.722c-.008-.02-.008-.039-.016-.055-.012-.02-.027-.027-.039-.043a23.97 23.97 0 0 0-3.742-4.875c-.012-.016-.02-.039-.035-.055-.012-.015-.035-.019-.051-.031a24.08 24.08 0 0 0-4.875-3.742c-.016-.012-.023-.027-.043-.039-.02-.008-.039-.008-.055-.016a23.764 23.764 0 0 0-5.726-2.375c0-.004-.004-.004-.008-.004 0-.004-.004 0-.008 0a23.911 23.911 0 0 0-12.406-.004c-.004.004-.008 0-.008 0-.004.004-.008.004-.008.004a24.09 24.09 0 0 0-5.726 2.375c-.016.012-.035.012-.055.02-.02.012-.027.027-.043.039a24.08 24.08 0 0 0-4.875 3.742c-.016.012-.039.02-.051.035-.015.012-.023.035-.035.051a24.226 24.226 0 0 0-3.742 4.875c-.012.016-.027.027-.039.043-.008.02-.008.035-.016.055a23.697 23.697 0 0 0-2.375 5.726c-.004 0-.004.004-.004.008 0 0 0 .004-.004.008a24.083 24.083 0 0 0-.816 6.203c0 2.145.289 4.223.816 6.203.004.004 0 .008.004.008 0 .004.004.008.004.012a23.735 23.735 0 0 0 2.375 5.722c.008.02.008.035.016.055.015.023.035.043.055.066a23.979 23.979 0 0 0 3.726 4.852c.012.016.02.035.035.051.016.015.035.023.051.035a23.952 23.952 0 0 0 4.875 3.738c.016.016.023.031.043.043.027.016.059.024.086.035a23.774 23.774 0 0 0 5.695 2.356c.004 0 .004.004.008.004s.008 0 .012.004c1.976.531 4.054.816 6.199.816s4.223-.285 6.199-.816c.004 0 .008 0 .012-.004.004 0 .008 0 .008-.004a23.774 23.774 0 0 0 5.695-2.356c.027-.011.059-.019.086-.035.02-.012.027-.027.047-.039a24.2 24.2 0 0 0 4.871-3.742c.016-.012.039-.02.051-.035.015-.012.023-.035.035-.051a24.143 24.143 0 0 0 3.73-4.852c.016-.023.036-.039.051-.066.012-.016.008-.035.02-.055a23.819 23.819 0 0 0 2.371-5.722c.004-.004.004-.008.008-.012zm-3.301-.055l1.531.41a21.964 21.964 0 0 1-1.633 3.93l-1.367-.789a.8.8 0 1 0-.801 1.387l1.364.785a22.447 22.447 0 0 1-2.594 3.375l-1.11-1.113a.8.8 0 1 0-1.132 1.132l1.113 1.11a22.713 22.713 0 0 1-3.375 2.594l-.785-1.364a.801.801 0 0 0-1.094-.293.795.795 0 0 0-.293 1.09l.789 1.367a22.275 22.275 0 0 1-3.93 1.637l-.41-1.531a.801.801 0 1 0-1.547.414l.411 1.527a22.378 22.378 0 0 1-4.219.555v-3.18a.803.803 0 0 0-.801-.801.803.803 0 0 0-.801.801v3.18a22.376 22.376 0 0 1-4.219-.551l.411-1.527a.802.802 0 0 0-.567-.981.798.798 0 0 0-.98.567l-.41 1.531a22.275 22.275 0 0 1-3.93-1.637l.789-1.367a.8.8 0 1 0-1.383-.801l-.789 1.364a22.189 22.189 0 0 1-3.371-2.59l1.109-1.114a.8.8 0 0 0-1.132-1.128l-1.11 1.109a22.447 22.447 0 0 1-2.594-3.375l1.364-.785a.8.8 0 1 0-.801-1.387l-1.367.789a22.26 22.26 0 0 1-1.633-3.93l1.531-.41a.801.801 0 1 0-.414-1.547l-1.527.411a22.056 22.056 0 0 1-.555-4.219h3.18c.441 0 .801-.36.801-.801a.803.803 0 0 0-.801-.801h-3.18c.051-1.445.238-2.855.551-4.219l1.527.411c.071.015.141.023.211.023a.796.796 0 0 0 .77-.59.796.796 0 0 0-.567-.98l-1.527-.41a21.964 21.964 0 0 1 1.633-3.93l1.367.789a.773.773 0 0 0 .398.105.798.798 0 0 0 .403-1.492l-1.364-.785a22.447 22.447 0 0 1 2.594-3.375l1.11 1.113a.808.808 0 0 0 .566.235.8.8 0 0 0 .566-1.367l-1.113-1.11a22.447 22.447 0 0 1 3.375-2.594l.785 1.364a.798.798 0 0 0 .696.398.8.8 0 0 0 .691-1.199l-.789-1.367a21.964 21.964 0 0 1 3.93-1.633l.41 1.531a.796.796 0 0 0 .98.563.8.8 0 0 0 .567-.977l-.411-1.527a22.056 22.056 0 0 1 4.219-.555v3.18c0 .441.36.801.801.801s.801-.36.801-.801v-3.18c1.445.051 2.855.238 4.219.551l-.411 1.527a.802.802 0 0 0 .774 1.008.796.796 0 0 0 .773-.594l.41-1.531c1.372.422 2.684.973 3.93 1.637l-.789 1.367a.8.8 0 1 0 1.387.801l.785-1.364a22.688 22.688 0 0 1 3.375 2.59l-1.113 1.114a.798.798 0 1 0 1.132 1.128l1.11-1.109a22.713 22.713 0 0 1 2.594 3.375l-1.364.785a.8.8 0 1 0 .801 1.387l1.367-.789a22.136 22.136 0 0 1 1.633 3.93l-1.531.41a.801.801 0 0 0-.567.98.8.8 0 0 0 .981.563l1.527-.407c.313 1.364.504 2.774.555 4.219h-3.18a.803.803 0 0 0-.801.801c0 .441.36.801.801.801h3.18a22.376 22.376 0 0 1-.551 4.219l-1.527-.411a.804.804 0 0 0-.981.567.797.797 0 0 0 .563.98z"/><path d="M-240.199 420.089h-5.715a3.192 3.192 0 0 0-2.285-2.285v-10.516a.799.799 0 0 0-.801-.796.799.799 0 0 0-.801.796v10.516a3.193 3.193 0 0 0-2.398 3.086 3.2 3.2 0 0 0 3.199 3.199 3.193 3.193 0 0 0 3.086-2.398h5.715c.441 0 .801-.36.801-.801a.803.803 0 0 0-.801-.801zm-8.801 2.403a1.604 1.604 0 0 1-1.602-1.602c0-.883.719-1.602 1.602-1.602s1.602.719 1.602 1.602c0 .883-.719 1.602-1.602 1.602zm0 2.398a6.406 6.406 0 0 0-6.398 6.398c0 3.532 2.871 6.403 6.398 6.403 3.527 0 6.398-2.871 6.398-6.403A6.406 6.406 0 0 0-249 424.89zm0 11.199a4.805 4.805 0 0 1-4.801-4.801c0-2.644 2.153-4.796 4.801-4.796s4.801 2.152 4.801 4.796a4.805 4.805 0 0 1-4.801 4.801z"/><path d="M-250.836 428.324a.796.796 0 0 0-1.129 0 .802.802 0 0 0 0 1.132l2.399 2.399a.801.801 0 0 0 1.132 0 .796.796 0 0 0 0-1.129l-2.402-2.402z"/></g></svg>