<svg xmlns="http://www.w3.org/2000/svg" viewBox="-273 397.13 48 47.76"><g fill="#171838"><path d="M-226.797 418.554c1.629-2.082.926-4.039.367-4.723-1.215-1.828-2.894-2.953-4.988-3.347-.164-.032-.332-.043-.5-.063.215-.184.422-.367.617-.551 1.406-1.328 2.082-2.75 2.004-4.222-.117-2.258-1.988-3.719-2.066-3.782l-.039-.027c-3.293-2.234-6.993.473-7.149.59l-.14.133c-.059.07-.114.152-.172.226-.36-1.855-1.364-3.332-2.985-4.383-.379-.304-2.804-2.097-5.632-.66-.352.18-.668.41-.965.664-.832-.234-1.754-.304-2.664.016-1.243.441-2.055 1.496-2.176 2.828a3.654 3.654 0 0 0 1.816 3.492c1.129.649 2.477 1.844 3.731 4.039-.746-.05-1.465.028-2.149.274-4.062 1.461-20.14 25.011-22.992 32.66-.242.648-.117 1.32.328 1.766.293.292.688.445 1.11.445.214 0 .433-.039.652-.117 7.703-2.875 31.351-18.871 32.789-22.871a5.155 5.155 0 0 0 .293-1.707c2.195 1.074 3.355 2.121 3.961 2.949.879 1.211 2.301 1.957 3.719 1.957h.047c1.179-.012 2.23-.555 2.878-1.489.961-1.386.622-2.882.106-3.863.07-.078.141-.152.199-.234zm-.926-3.785c.09.121.84 1.187-.242 2.679-.031-.039-.066-.078-.101-.117-.059-.066-.118-.129-.176-.195a19.938 19.938 0 0 0-.457-.488c-.047-.047-.094-.098-.141-.141-2.504-2.453-5.359-3.227-7.949-3.227-.918 0-1.805.098-2.629.246.086-.039.18-.078.27-.117l.378-.164c.141-.058.282-.117.422-.172.118-.047.243-.093.364-.136.218-.086.445-.164.675-.243.145-.046.286-.097.43-.14.141-.043.285-.082.426-.125.156-.043.316-.082.476-.121.157-.039.313-.078.469-.114a12.406 12.406 0 0 1 1.024-.171c.941-.122 1.879-.133 2.773.031 1.676.316 2.969 1.187 3.988 2.715zm-9.797-11.11c.465-.32 3.047-1.945 5.196-.511.144.117 1.355 1.16 1.429 2.582.051.984-.457 1.988-1.507 2.98a15.192 15.192 0 0 1-2.227 1.715c-.105.012-.211.035-.316.051-.223.031-.45.066-.668.109-.157.031-.305.066-.457.102-.176.039-.348.078-.524.125-.16.039-.316.086-.476.132l-.473.141c-.164.055-.324.106-.484.16l-.422.153c-.164.062-.328.121-.492.187-.106.043-.211.086-.321.129-.695.289-1.34.59-1.922.887l-.023.011a25.96 25.96 0 0 0 1.441-3.148c.028-.074.059-.145.086-.215.075-.207.141-.422.211-.633.039-.113.078-.23.114-.343.062-.204.117-.407.171-.61.032-.129.067-.258.098-.387.051-.203.09-.402.133-.605.023-.137.051-.27.074-.402.031-.203.059-.403.082-.606.008-.07.024-.14.031-.211.411-.676.821-1.265 1.246-1.793zm-9.207-4.5c2.039-1.015 3.817.442 3.891.5a.707.707 0 0 0 .086.067c1.285.824 2.047 1.937 2.324 3.394a7.46 7.46 0 0 1 .086 1.942l-.004.07c-.105 1.262-.465 2.559-.918 3.766a11.438 11.438 0 0 0-.25-2.942 7.275 7.275 0 0 0-.078-.316 3.661 3.661 0 0 0-.07-.262 5.798 5.798 0 0 0-.133-.426l-.039-.117a9.501 9.501 0 0 0-1.938-3.238 3.043 3.043 0 0 0-.074-.086 13.537 13.537 0 0 0-.41-.422 4.695 4.695 0 0 0-.219-.203c-.109-.102-.218-.207-.339-.305a11.347 11.347 0 0 0-.68-.547s-.004-.008-.008-.008a7.987 7.987 0 0 0-.406-.324h-.004a8.299 8.299 0 0 0-.789-.527c-.008-.004-.016-.012-.028-.016zm-3.945 4.2a2.059 2.059 0 0 1-1.019-1.961c.031-.332.199-1.141 1.113-1.461.262-.094.527-.133.793-.133.422 0 .847.101 1.246.25h.004c.008.004.019.012.031.015.137.051.27.106.402.168l.184.094c.106.055.207.11.305.164.039.02.074.043.109.063a7.697 7.697 0 0 1 .977.691c.019.02.039.035.058.051.348.258.668.527.969.812.086.082.152.164.234.247.204.207.403.417.582.64.079.094.145.195.215.293.164.219.321.445.457.68a7.16 7.16 0 0 1 .559 1.129l.058.136c.563 1.5.692 3.204.375 5.102a16.116 16.116 0 0 1-1.007 3.434 38.454 38.454 0 0 0-.422-1.391c-.028-.074-.051-.145-.078-.219a23.156 23.156 0 0 0-.418-1.168c-.024-.062-.047-.129-.075-.191-1.718-4.356-3.914-6.449-5.652-7.445zm11.164 17.042c-.43 1.2-3.437 3.813-7.492 6.844-.066-.027-.133-.058-.211-.07-1.309-.141-3-.816-3.836-2.004a.8.8 0 0 0-1.305.922c.887 1.258 2.332 2.023 3.649 2.406a201.776 201.776 0 0 1-8.199 5.617.786.786 0 0 0-.43-.203c-.82-.09-1.879-.508-2.395-1.238a.801.801 0 0 0-1.117-.195.805.805 0 0 0-.191 1.117c.59.832 1.512 1.355 2.387 1.648-5.18 3.297-10.075 6.086-12.7 7.067-.019.004-.035.011-.047.015.004-.015.008-.031.016-.047.645-1.73 1.844-4.066 3.359-6.675.028.027.047.062.079.086.574.421 1.187.789 1.816 1.089a.798.798 0 0 0 1.066-.379.799.799 0 0 0-.379-1.066 9.544 9.544 0 0 1-1.554-.934.916.916 0 0 0-.254-.117c1.875-3.129 4.125-6.566 6.398-9.84.305.793.809 1.594 1.559 2.125a.803.803 0 0 0 .461.145c.25 0 .496-.117.652-.34a.793.793 0 0 0-.191-1.113c-.731-.516-1.149-1.574-1.238-2.395-.004-.047-.028-.086-.04-.129a154.432 154.432 0 0 1 5.071-6.761c.383 1.316 1.148 2.769 2.406 3.656a.796.796 0 0 0 1.117-.191.801.801 0 0 0-.191-1.114c-1.188-.84-1.863-2.531-2.004-3.836-.004-.035-.024-.062-.031-.093 1.8-2.145 3.226-3.579 3.933-3.832a3.61 3.61 0 0 1 1.227-.211c.398 0 .82.062 1.258.187.351.797.675 1.66.968 2.578.02.063.039.121.055.184.121.387.234.789.348 1.199.023.09.05.176.074.27.125.488.246.984.359 1.496.008.035.024.062.035.097.012.028.02.063.036.09.004.012.004.02.011.028.012.027.032.042.047.066l.012.019c.019.024.035.051.055.075.007.004.007.007.015.011 0 .004.004.004.008.008.02.024.047.039.074.059.004.004.012.008.016.015.019.016.039.036.062.047.008.004.02.008.028.016l.058.023c.02.008.036.016.055.02a.535.535 0 0 0 .07.031c.461.117.907.238 1.344.363l.289.082c.344.102.68.2 1.008.305l.246.078c.34.114.676.223.996.34l.168.059c.371.133.731.269 1.074.406h.004c.102.676.051 1.301-.164 1.894zm11.09 1.336c-.453.653-1.109.797-1.582.801h-.027c-.914 0-1.844-.496-2.426-1.297-1.109-1.519-3.086-2.871-5.875-4.039l-.012-.011c-.031-.012-.066-.024-.098-.04-.242-.097-.496-.199-.75-.296-.222-.082-.445-.168-.675-.25a31.063 31.063 0 0 0-.711-.25c-.336-.114-.68-.223-1.031-.332-.133-.043-.254-.086-.387-.125.062-.024.137-.051.203-.075.023-.007.051-.004.074-.011 2.496-.911 6.766-1.789 10.469.781.191.133.379.285.566.437.09.075.184.137.274.215a11.826 11.826 0 0 1 1.644 1.77l.102.136c.004.004.008.004.012.008.269.371.968 1.52.23 2.578z"/><path d="M-240.699 420.109c-1.637-.625-3.153-1.747-4.512-3.333a.8.8 0 1 0-1.215 1.04c1.531 1.793 3.27 3.07 5.16 3.789a.81.81 0 0 0 .286.054c.32 0 .625-.199.746-.515a.805.805 0 0 0-.465-1.035z"/></g></svg>