<svg xmlns="http://www.w3.org/2000/svg" viewBox="-456 257 46.922 48"><g fill="#171838"><path d="M-432.567 267.071a4.54 4.54 0 0 0 4.535-4.535 4.54 4.54 0 0 0-4.535-4.535 4.54 4.54 0 0 0-4.535 4.535 4.539 4.539 0 0 0 4.535 4.535zm0-7.559c1.668 0 3.024 1.356 3.024 3.024s-1.356 3.024-3.024 3.024-3.024-1.356-3.024-3.024 1.356-3.024 3.024-3.024z"/><path d="M-417.449 268.583a3.783 3.783 0 0 0-3.779 3.779v6.803h6.047v4.535h-6.803a5.298 5.298 0 0 0-5.291 5.291v6.594c0-.475-.112-.95-.315-1.355l-4.928-10.594 1.25-4.373.658.657h4.47a2.649 2.649 0 0 0 2.646-2.646 2.649 2.649 0 0 0-2.646-2.646h-2.241l-1.181-1.772c.007-.101.021-.2.021-.301v-.723a4.768 4.768 0 0 0-4.763-4.763c-.998 0-1.956.306-2.769.887l-2.666 1.905a4.536 4.536 0 0 0-1.897 3.684c0 .85.238 1.681.689 2.401l1.558 2.492-.77 3.847.015.033-.703 6.325-5.234 5.234a2.877 2.877 0 0 0-.847 2.046c0 .503.141.969.367 1.382h-5.659c-2.084 0-3.779 1.695-3.779 3.779s1.695 3.78 3.779 3.78h33.26c2.084 0 3.779-1.695 3.779-3.78s-1.695-3.779-3.779-3.779h-6.803v-8.315a3.784 3.784 0 0 1 3.78-3.78h6.803v19.654h6.047V268.58h-8.316zm-11.339 27.003v.16a1.562 1.562 0 0 1-2.97.67l-3.353-7.041 3.111-1.037 3.046 6.548c.11.217.166.458.166.7zm4.536 4.744v-1.512h2.287c-.48.633-.776 1.414-.776 2.268s.296 1.634.776 2.268h-2.287v-1.512h-1.512v1.512h-1.512v-1.512h-1.512v1.512h-1.512v-1.512h-1.512v1.512h-1.512v-1.512h-1.512v1.512h-1.512v-1.512h-1.512v1.512h-1.512v-1.512h-1.512v1.512h-1.512v-1.512h-1.512v1.512h-1.512v-1.512h-1.512v1.512h-2.287c.48-.633.776-1.414.776-2.268s-.296-1.634-.776-2.268h2.287v1.512h1.512v-1.512h1.512v1.512h1.512v-1.512h1.512v1.512h1.512v-1.512h1.512v1.512h1.512v-1.512h1.512v1.512h1.512v-1.512h1.512v1.512h1.512v-1.512h1.512v1.512h1.512v-1.512h1.512v1.512h1.512zm-9.944-19.622l.824.412-.755 2.644 1.487 3.196-3.124 1.042-2.815-5.911.358-1.788a2.683 2.683 0 0 0 4.025.405zm-1.529 11l.026-.051 2.576 5.411c.04.084.089.161.136.24h-8.338l5.6-5.6zm9.583-15.566c.625 0 1.134.509 1.134 1.134s-.509 1.134-1.134 1.134h-3.845l-.808-.808.773-2.705.83 1.245h3.05zm-10.055-6.953a3.239 3.239 0 0 1 1.891-.606 3.255 3.255 0 0 1 3.251 3.251v.723c0 .302-.042.603-.125.893l-1.768 6.191-.469-.234c.056-.218.095-.441.095-.675v-.54a2.7 2.7 0 0 0-.385-1.39l-1.619-2.699 1.668-1.112-.838-1.258-1.752 1.168-2.144-2.144 2.195-1.568zm-3.471 5.958a3.022 3.022 0 0 1-.458-1.599c0-.652.216-1.277.595-1.79l2.584 2.584 1.943 3.238c.11.186.169.398.169.613v.54a1.191 1.191 0 0 1-2.198.63l-2.635-4.216zm3.144 14.777l-.134.268-2.664-1.598.41-3.683 2.388 5.013zm-8.893 6.001c0-.364.147-.72.404-.977l5.004-5.004 2.443 1.466-5.492 5.493a1.383 1.383 0 0 1-2.359-.978zm-9.071 5.161a2.27 2.27 0 0 1 2.268-2.268c1.25 0 2.268 1.017 2.268 2.268s-1.017 2.268-2.268 2.268a2.27 2.27 0 0 1-2.268-2.268zm37.795 0a2.27 2.27 0 0 1-2.268 2.268c-1.25 0-2.268-1.017-2.268-2.268s1.017-2.268 2.268-2.268a2.272 2.272 0 0 1 2.268 2.268zm-11.024-3.779c.274-.459.441-.989.441-1.56v1.56h-.441zm10.268-27.213h6.803v3.024h-9.071v-.756a2.271 2.271 0 0 1 2.268-2.268zm-2.268 4.536h9.071v3.024h-9.071v-3.024zm9.071 28.724h-3.024v-24.189h3.024v24.189z"/></g></svg>