<svg xmlns="http://www.w3.org/2000/svg" viewBox="-274 396.89 46.922 48"><g fill="#171838"><path d="M-248.078 404.89a2.999 2.999 0 1 0-5.999 0 3 3 0 1 0 5.999 0zm-3.998 0a1 1 0 1 1 2.002.002 1 1 0 0 1-2.002-.002z"/><path d="M-235.076 428.889a7.957 7.957 0 0 0-4.245 1.222c-1.665-.862-2.222-1.496-2.405-1.853-.009-.018-.015-.038-.024-.057l-.026-3.423c2.088-2.794 3.58-6.278 3.594-9.888h1.031c.552 0 .789-.397.53-.883 0 0-.304-.573-1.148-1.335v-1.473c0-7.009-5.531-12.752-12.31-13.27l.001-.038a1 1 0 0 0-2 0l.002.038c-6.776.517-12.307 6.259-12.307 13.268v1.473c-.846.762-1.15 1.335-1.15 1.335-.26.486-.021.883.53.883h1.031c.013 3.61 1.507 7.094 3.595 9.888l-.025 3.423c-.009.019-.016.039-.025.057-.261.507-1.28 1.584-5.199 3.076-1.105.422-1.944 1.061-4.425 1.729l-.172.048a5.488 5.488 0 0 0-3.777 5.207v6.574h38.924c4.409 0 7.998-3.589 7.998-8.001 0-4.411-3.589-8-7.998-8zm0 2c3.062 0 5.593 2.305 5.956 5.27-.753.2-1.86.427-3.188.575a3.006 3.006 0 0 0-2.768-1.846 3.003 3.003 0 0 0-2.768 1.846 22.423 22.423 0 0 1-3.188-.575 6.01 6.01 0 0 1 5.956-5.27zm.999 7a1.002 1.002 0 0 1-2.001 0 1 1 0 1 1 2.001 0zm-28.307-26.692c0-1.521.303-2.998.903-4.392a11.39 11.39 0 0 1 2.452-3.6 11.448 11.448 0 0 1 3.608-2.43 11.076 11.076 0 0 1 4.344-.885c1.499 0 2.961.298 4.348.886a11.44 11.44 0 0 1 3.606 2.43 11.357 11.357 0 0 1 2.452 3.6c.597 1.394.903 2.871.903 4.391v.066c-2.181-1.215-5.723-2.373-11.309-2.373-5.584 0-9.126 1.158-11.307 2.372v-.065zm21.419 1.692h-20.223c1.051-.556 2.291-1.003 3.685-1.332 1.878-.442 4.041-.667 6.426-.667 2.387 0 4.55.225 6.427.667 1.395.329 2.634.776 3.685 1.332zm-21.006 2.001h21.789c-.015 3.28-1.509 6.857-4.11 9.82-1.149 1.309-2.435 2.403-3.718 3.166-1.15.682-2.238 1.057-3.067 1.057-.829 0-1.917-.375-3.064-1.057-1.284-.763-2.572-1.857-3.719-3.166-2.6-2.963-4.096-6.54-4.111-9.82zm18.807 14.811c-1.006 1.258-3.299 3.189-7.913 3.189-5.083 0-7.032-2.332-7.692-3.506a2.455 2.455 0 0 0 .196-.376l.167-.369.003-.424.009-1.155c2.408 2.382 5.161 3.873 7.317 3.873 2.159 0 4.91-1.492 7.318-3.873l.008 1.155.003.422.167.37c.015.032.041.094.076.166.095.18.208.357.341.528zm-7.913 13.187H-272v-4.571c0-1.491.952-2.811 2.375-3.297l.111-.032a19.378 19.378 0 0 0 3.733-1.394c.322-.154.599-.288.869-.39 1.488-.567 3.35-1.352 4.708-2.353.279.414.648.87 1.134 1.329 2.373 2.24 5.659 2.71 7.995 2.71 4.212 0 6.805-1.454 8.241-2.677a9.364 9.364 0 0 0 1.157-1.172c.225.155.462.303.706.448a7.979 7.979 0 0 0-2.104 5.401 7.978 7.978 0 0 0 2.716 5.999h-10.718v-.001zm16.001 0c-2.842 0-5.229-1.986-5.848-4.643.75.173 1.758.364 2.971.493a3.006 3.006 0 0 0 2.877 2.152c1.359 0 2.511-.91 2.877-2.152a25.075 25.075 0 0 0 2.968-.493 6.009 6.009 0 0 1-5.845 4.643z"/></g></svg>