<svg xmlns="http://www.w3.org/2000/svg" viewBox="0 0 46.389 74.3"><path fill="#1b1b38" d="M14.835 7.84L22.675 0l7.839 7.84-7.84 7.84zm7.827 29.881a2.965 2.965 0 1 0 0-5.93 2.965 2.965 0 0 0 0 5.93zm0-3.955a.99.99 0 1 1 0 1.979.99.99 0 0 1 0-1.979z"/><path d="M46.389 66.39c0-4.361-3.548-7.909-7.907-7.909-1.54 0-2.981.443-4.196 1.208-1.646-.852-2.196-1.479-2.378-1.832-.009-.018-.015-.037-.024-.056l-.025-3.384c2.064-2.762 3.539-6.206 3.553-9.776h1.019c.545 0 .78-.393.524-.873 0 0-.301-.567-1.135-1.32v-1.457c0-6.929-5.468-12.607-12.17-13.119l.001-.038a.988.988 0 0 0-1.977 0l.002.038c-6.701.512-12.169 6.19-12.169 13.119v1.457c-.836.754-1.137 1.32-1.137 1.32-.257.481-.02.873.524.873h1.02c.013 3.569 1.49 7.013 3.554 9.776l-.025 3.384-.025.056c-.258.502-1.266 1.566-5.139 3.041-1.092.417-1.922 1.048-4.375 1.709l-.17.047A5.425 5.425 0 0 0 0 67.802V74.3h38.481c4.36 0 7.908-3.548 7.908-7.91zm-2.019-.721c-.744.198-1.839.423-3.151.569a2.974 2.974 0 0 0-2.737-1.825 2.97 2.97 0 0 0-2.737 1.825 22.044 22.044 0 0 1-3.151-.569 5.939 5.939 0 0 1 5.888-5.21c3.026 0 5.529 2.278 5.888 5.21zm-4.901 1.71a.99.99 0 1 1-1.98 0 .99.99 0 0 1 1.98 0zM12.666 42.663c1.039-.549 2.265-.992 3.643-1.317 1.856-.437 3.995-.66 6.353-.66 2.36 0 4.498.223 6.354.66 1.379.325 2.603.768 3.643 1.317H12.666zm-.29-6.014A11.277 11.277 0 0 1 14.8 33.09a11.324 11.324 0 0 1 3.567-2.402 10.943 10.943 0 0 1 4.295-.876c1.482 0 2.928.295 4.298.876a11.326 11.326 0 0 1 3.565 2.402 11.216 11.216 0 0 1 2.424 3.559 10.95 10.95 0 0 1 .892 4.341v.065c-2.155-1.2-5.656-2.345-11.179-2.345-5.52 0-9.022 1.145-11.179 2.345v-.064c.001-1.504.301-2.964.893-4.342zm21.058 7.992c-.015 3.243-1.492 6.779-4.064 9.708-1.136 1.294-2.407 2.375-3.676 3.13-1.137.674-2.213 1.045-3.032 1.045-.82 0-1.896-.371-3.03-1.045-1.27-.754-2.543-1.836-3.677-3.13-2.57-2.929-4.049-6.465-4.064-9.708h21.543zM22.662 60.502c2.134 0 4.854-1.475 7.235-3.829l.008 1.142.003.417.165.366c.015.032.041.093.075.164.093.178.205.352.336.522-.994 1.244-3.261 3.153-7.823 3.153-5.025 0-6.952-2.305-7.604-3.466a2.528 2.528 0 0 0 .194-.373l.165-.364.003-.419.009-1.142c2.382 2.354 5.103 3.829 7.234 3.829zM1.977 72.321v-4.52c0-1.474.941-2.779 2.348-3.26l.11-.032a19.062 19.062 0 0 0 3.69-1.379c.319-.153.592-.284.859-.385 1.471-.561 3.312-1.337 4.654-2.326.275.409.64.861 1.121 1.314 2.346 2.215 5.594 2.679 7.904 2.679 4.165 0 6.728-1.438 8.147-2.646a9.224 9.224 0 0 0 1.144-1.159c.223.153.457.3.698.443a7.886 7.886 0 0 0-2.08 5.339c0 2.36 1.04 4.482 2.685 5.931H22.662l-20.685.001zm36.505 0a5.946 5.946 0 0 1-5.781-4.591c.741.171 1.738.36 2.937.487a2.97 2.97 0 0 0 2.844 2.127 2.97 2.97 0 0 0 2.844-2.127 24.683 24.683 0 0 0 2.934-.487 5.94 5.94 0 0 1-5.778 4.591z" fill="#1b1b38"/></svg>