<svg xmlns="http://www.w3.org/2000/svg" viewBox="0 0 46.54 74.386"><path fill="#1b1b38" d="M24.477 0l7.84 7.84-7.84 7.84-7.84-7.84zM23.27 36.854c2.484 0 4.504-2.02 4.504-4.504s-2.02-4.504-4.504-4.504-4.504 2.02-4.504 4.504 2.02 4.504 4.504 4.504zm0-7.507a3.006 3.006 0 0 1 3.003 3.003 3.006 3.006 0 0 1-3.003 3.003 3.006 3.006 0 0 1-3.003-3.003 3.006 3.006 0 0 1 3.003-3.003zm15.013 9.008a3.757 3.757 0 0 0-3.753 3.753v6.756h6.005v4.504h-6.756a5.26 5.26 0 0 0-5.254 5.254v6.549c0-.472-.111-.944-.313-1.346l-4.894-10.52 1.241-4.342.653.652h4.439a2.63 2.63 0 0 0 2.627-2.627 2.63 2.63 0 0 0-2.627-2.627h-2.226l-1.173-1.759c.007-.1.021-.199.021-.299v-.718a4.735 4.735 0 0 0-4.73-4.73c-.991 0-1.942.304-2.75.881l-2.648 1.892a4.504 4.504 0 0 0-1.883 3.659c0 .844.236 1.669.684 2.384l1.547 2.475-.764 3.82.015.032-.698 6.281-5.197 5.197a2.857 2.857 0 0 0-.841 2.032c0 .499.14.962.365 1.372h-5.62A3.756 3.756 0 0 0 0 70.632a3.757 3.757 0 0 0 3.753 3.753h33.028a3.757 3.757 0 0 0 3.753-3.753 3.757 3.757 0 0 0-3.753-3.753h-6.756v-8.257a3.757 3.757 0 0 1 3.753-3.753h6.756v19.516h6.005v-36.03h-8.256zm-11.26 26.816v.159a1.551 1.551 0 0 1-2.949.666l-3.33-6.992 3.09-1.03 3.025 6.503c.108.214.164.454.164.694zm4.504 4.711v-1.501h2.271a3.713 3.713 0 0 0-.77 2.252c0 .848.293 1.623.77 2.252h-2.271v-1.501h-1.501v1.501h-1.501v-1.501h-1.501v1.501h-1.501v-1.501H24.02v1.501h-1.501v-1.501h-1.501v1.501h-1.501v-1.501h-1.501v1.501h-1.501v-1.501h-1.501v1.501h-1.501v-1.501H12.01v1.501h-1.501v-1.501H9.008v1.501H6.736c.477-.629.77-1.404.77-2.252 0-.848-.293-1.623-.77-2.252h2.271v1.501h1.501v-1.501h1.501v1.501h1.501v-1.501h1.501v1.501h1.501v-1.501h1.501v1.501h1.501v-1.501h1.501v1.501h1.501v-1.501h1.501v1.501h1.501v-1.501h1.501v1.501h1.501v-1.501h1.501v1.501h1.506zm-9.875-19.486l.818.409-.75 2.626 1.477 3.174-3.102 1.034-2.795-5.87.355-1.776a2.664 2.664 0 0 0 3.997.403zm-1.518 10.923l.026-.051 2.558 5.373c.04.083.089.16.135.238h-8.28l5.561-5.56zm9.516-15.458a1.127 1.127 0 0 1 0 2.252h-3.818l-.802-.802.767-2.686.824 1.236h3.029zm-9.985-6.904a3.218 3.218 0 0 1 1.877-.602 3.232 3.232 0 0 1 3.228 3.228v.718c0 .3-.042.599-.125.887l-1.756 6.148-.466-.233c.056-.216.095-.438.095-.67v-.536c0-.486-.132-.963-.383-1.38l-1.608-2.681 1.657-1.104-.832-1.249-1.74 1.16-2.129-2.129 2.182-1.557zm-3.447 5.917a3.002 3.002 0 0 1-.455-1.588 3 3 0 0 1 .591-1.778l2.566 2.566 1.929 3.215c.11.185.168.395.168.609v.536a1.183 1.183 0 0 1-2.183.626l-2.616-4.186zm3.122 14.674l-.133.266-2.645-1.587.407-3.658 2.371 4.979zm-8.831 5.959c0-.362.146-.715.402-.971l4.969-4.969 2.426 1.455-5.454 5.455a1.373 1.373 0 0 1-2.343-.97zm-9.008 5.125c0-1.242 1.01-2.252 2.252-2.252s2.252 1.01 2.252 2.252c0 1.242-1.01 2.252-2.252 2.252s-2.252-1.01-2.252-2.252zm37.532 0c0 1.242-1.01 2.252-2.252 2.252s-2.252-1.01-2.252-2.252c0-1.242 1.01-2.252 2.252-2.252s2.252 1.011 2.252 2.252zm-10.946-3.753c.272-.456.438-.982.438-1.549v1.549h-.438zm10.196-27.023h6.756v3.003h-9.008v-.751a2.255 2.255 0 0 1 2.252-2.252zm-2.252 4.504h9.008v3.003h-9.008V44.36zm9.007 28.524h-3.003v-24.02h3.003v24.02z"/></svg>