<svg xmlns="http://www.w3.org/2000/svg" viewBox="0 0 40.621 75.064"><g fill="#1b1b38"><path d="M20.765 0l7.84 7.84-7.84 7.84-7.84-7.84zm14.834 56.522l.15-.124c2.643-2.175 4.158-5.348 4.158-8.705 0-2.858-1.022-5.557-2.878-7.6l-.065-.071V28.61c0-.471-.293-.764-.764-.764H.763c-.471 0-.763.293-.763.764V74.3c0 .471.292.764.763.764h35.428a.766.766 0 0 0 .764-.764v-5.89l3.666-1.263-5.022-10.625zm2.879-8.834v.005c-.01 3.836-2.222 7.314-5.634 8.862a10.52 10.52 0 0 1-4.061.832c-5.346 0-9.694-4.349-9.694-9.694 0-5.345 4.349-9.694 9.694-9.694 5.326 0 9.585 4.256 9.695 9.689zm-13.24 10.571l-2.169 9.559-4.485-1.603.122-.25 4.229-8.748.232.131c.616.348 1.241.63 1.857.839l.214.072zm10.189 15.278h-33.9V29.373h33.9v9.259l-.391-.264c-1.831-1.241-3.993-1.896-6.253-1.896a11.11 11.11 0 0 0-6.855 2.326l-.402.311v-.307H8.518v1.527h11.765l-.318.404a11.303 11.303 0 0 0-2.412 6.951c0 .897.109 1.799.325 2.679l.075.31H8.518V52.2h9.987l.066.146a11.074 11.074 0 0 0 2.927 3.832l.146.124-2.956 6.252H8.518v1.527h9.453l-1.444 3.048 7.699 2.664 2.553-11.162.229.034c1.031.154 2.011.178 3.152.057l.221-.022 2.541 11.084 2.505-.861v4.614zm-1.347-5.708l-2.133-9.417.23-.064c.407-.113 1.678-.669 1.91-.803l.233-.134 4.243 8.805-4.483 1.613z"/><path d="M26.504 44.48l-4.915.752 3.594 3.494-.854 4.93 4.449-2.179 4.332 2.262-.842-4.901 3.503-3.603-4.933-.755-2.162-4.434-2.172 4.434zm3.448 1.472l2.601.352-1.89 1.891.487 2.588-2.36-1.181-2.369 1.311.477-2.725-1.905-1.883 2.604-.353 1.178-2.356 1.177 2.356z"/></g></svg>